<svg width="400" height="500" viewBox="0 0 400 500" xmlns="http://www.w3.org/2000/svg">
  <!-- 手掌底座 -->
  <rect x="120" y="350" width="160" height="100" rx="20" fill="#888" stroke="#333" stroke-width="3"/>
  
  <!-- 手腕连接部分 -->
  <rect x="150" y="430" width="100" height="50" rx="10" fill="#777" stroke="#333" stroke-width="3"/>
  
  <!-- 拇指 -->
  <g class="thumb">
    <path d="M120,350 Q100,320 110,270 Q115,240 140,230 Q160,225 170,250 Q175,270 165,300 Z" fill="#999" stroke="#333" stroke-width="3"/>
    <circle cx="140" cy="245" r="10" fill="#555" stroke="#333" stroke-width="2"/> <!-- 关节 -->
  </g>
  
  <!-- 食指 -->
  <g class="index-finger">
    <path d="M160,350 L160,200 Q165,170 180,170 Q195,170 200,200 L200,350" fill="#999" stroke="#333" stroke-width="3"/>
    <circle cx="180" cy="200" r="10" fill="#555" stroke="#333" stroke-width="2"/> <!-- 关节 -->
    <circle cx="180" cy="250" r="10" fill="#555" stroke="#333" stroke-width="2"/> <!-- 关节 -->
  </g>
  
  <!-- 中指 -->
  <g class="middle-finger">
    <path d="M200,350 L200,180 Q205,150 220,150 Q235,150 240,180 L240,350" fill="#999" stroke="#333" stroke-width="3"/>
    <circle cx="220" cy="180" r="10" fill="#555" stroke="#333" stroke-width="2"/> <!-- 关节 -->
    <circle cx="220" cy="230" r="10" fill="#555" stroke="#333" stroke-width="2"/> <!-- 关节 -->
  </g>
  
  <!-- 无名指 -->
  <g class="ring-finger">
    <path d="M240,350 L240,190 Q245,160 260,160 Q275,160 280,190 L280,350" fill="#999" stroke="#333" stroke-width="3"/>
    <circle cx="260" cy="190" r="10" fill="#555" stroke="#333" stroke-width="2"/> <!-- 关节 -->
    <circle cx="260" cy="240" r="10" fill="#555" stroke="#333" stroke-width="2"/> <!-- 关节 -->
  </g>
  
  <!-- 小指 -->
  <g class="pinky">
    <path d="M280,350 L280,220 Q285,190 300,190 Q315,190 320,220 L320,350" fill="#999" stroke="#333" stroke-width="3"/>
    <circle cx="300" cy="220" r="10" fill="#555" stroke="#333" stroke-width="2"/> <!-- 关节 -->
    <circle cx="300" cy="270" r="10" fill="#555" stroke="#333" stroke-width="2"/> <!-- 关节 -->
  </g>
  
  <!-- 装饰性机械元素 -->
  <circle cx="200" cy="380" r="15" fill="#555" stroke="#333" stroke-width="2"/>
  <circle cx="200" cy="380" r="8" fill="#777"/>
  <rect x="140" y="370" width="120" height="10" rx="5" fill="#666" stroke="#333" stroke-width="1"/>
  
  <!-- 手掌上的细节 -->
  <line x1="150" y1="390" x2="250" y2="390" stroke="#555" stroke-width="2" stroke-dasharray="5,3"/>
  <line x1="150" y1="410" x2="250" y2="410" stroke="#555" stroke-width="2" stroke-dasharray="5,3"/>
</svg>